# xmcd
#
# Track frame offsets:
#	150
#	10851
#	29106
#	38356
#	53427
#	67296
#	78637
#	90521
#	100602
#	115765
#	128562
#	144435
#
# Disc length: 2149 seconds
#
# Revision: 0
# Processed by: cddbd v1.4PL0 Copyright (c) Steve Scherf et al.
# Submitted via: dBpowerAMP V4.0
#
DISCID=9108630c
DTITLE=Annabel - Keep your mind changin'
DYEAR=1999
DGENRE=Blues
TTITLE0=Amazin' man
TTITLE1=It's a hard life
TTITLE2=Burnin' the road house down
TTITLE3=Keep your mind changin'
TTITLE4=Maybe be a mama is praying
TTITLE5=Walking after midnight
TTITLE6=The eagles in the cage
TTITLE7=We shall rise
TTITLE8=Have mercy
TTITLE9=Crossing jordan river
TTITLE10=Oh! Happy day
TTITLE11=All my tears
EXTD=
EXTT0=
EXTT1=
EXTT2=
EXTT3=
EXTT4=
EXTT5=
EXTT6=
EXTT7=
EXTT8=
EXTT9=
EXTT10=
EXTT11=
PLAYORDER=
